# xmcd
#
# Track frame offsets: 
#        150
#        14779
#        28091
#        41669
#        55056
#        68822
#        82885
#        95007
#        108219
#        121814
#        133342
#        145879
#        159106
#        173793
#        185448
#        197712
#        211943
#        226544
#        239551
#        251575
#        265036
#        280084
#        293157
#        305978
#        319803
#
# Disc length: 4436 seconds
#
# Revision: 1
# Processed by: cddbd v1.5.2PL0 Copyright (c) Steve Scherf et al.
# Submitted via: ExactAudioCopy v1.0b1
#
DISCID=67115219
DTITLE=Tampa Red - Dynamite! The Unsung Kink Of The Blues CD 2
DYEAR=2015
DGENRE=Blues
TTITLE0=New Deal Blues (mono)
TTITLE1=That's Her Own Business (mono)
TTITLE2=It's Too Late Now (mono)
TTITLE3=It's A Brand New Boogey (mono)
TTITLE4=When Things Go Wrong With You (mono)
TTITLE5=Please Try To See It My Way (mono)
TTITLE6=Keep Jumping (mono)
TTITLE7=I`ll Dig You Sooner Or Later (mono)
TTITLE8=Roaming And Rambling (mono)
TTITLE9=I Know My Baby Loves Me (mono)
TTITLE10=You Better Woo Your Baby (mono)
TTITLE11=Let's Try It Again (mono)
TTITLE12=Crying Won't Help You (mono)
TTITLE13=Play Proof Woman (mono)
TTITLE14=Corrine Blues (mono)
TTITLE15=Detroit Blues (mono)
TTITLE16=I Got My Habits On (mono)
TTITLE17=Mary Lou Blues (mono)
TTITLE18=Let Me Play With Your Poodle (mono)
TTITLE19=My First Love Blues (mono)
TTITLE20=She Want To Sell My Monkey (mono)
TTITLE21=Mean And Evil Woman (mono)
TTITLE22=Don't Deal With The Devil (mono)
TTITLE23=You Better Be Ready To Go (mono)
TTITLE24=Texas Stomp (mono)
EXTD=YEAR: 2015
EXTT0=
EXTT1=
EXTT2=
EXTT3=
EXTT4=
EXTT5=
EXTT6=
EXTT7=
EXTT8=
EXTT9=
EXTT10=
EXTT11=
EXTT12=
EXTT13=
EXTT14=
EXTT15=
EXTT16=
EXTT17=
EXTT18=
EXTT19=
EXTT20=
EXTT21=
EXTT22=
EXTT23=
EXTT24=
PLAYORDER=
